<svg xmlns="http://www.w3.org/2000/svg" xmlns:xlink="http://www.w3.org/1999/xlink" width="151" zoomAndPan="magnify" viewBox="0 0 113.25 113.249998" height="151" preserveAspectRatio="xMidYMid meet" version="1.0"><defs><g/><clipPath id="eb1605144a"><path d="M 0 0 L 112.503906 0 L 112.503906 112.503906 L 0 112.503906 Z M 0 0 " clip-rule="nonzero"/></clipPath><clipPath id="199ce17066"><path d="M 0 16 L 49 16 L 49 63 L 0 63 Z M 0 16 " clip-rule="nonzero"/></clipPath><clipPath id="7fe69e0bf1"><rect x="0" width="112" y="0" height="78"/></clipPath></defs><g clip-path="url(#eb1605144a)"></g><g transform="matrix(1, 0, 0, 1, 0, 17)"><g clip-path="url(#7fe69e0bf1)"><g clip-path="url(#199ce17066)"><g fill="#409fab" fill-opacity="1"><g transform="translate(1.970904, 61.703488)"><g><path d="M 31.828125 0.671875 L 21.25 -14.535156 L 22.214844 -15.207031 L 23.183594 -14.542969 L 12.445312 1.171875 L -2.117188 1.171875 L 15.445312 -22.96875 L 16.394531 -22.277344 L 15.441406 -21.59375 L -1.28125 -44.976562 L 13.121094 -44.976562 L 23.546875 -30.277344 L 22.589844 -29.597656 L 21.628906 -30.269531 L 31.863281 -44.976562 L 45.722656 -44.976562 L 29.109375 -21.964844 L 28.160156 -22.652344 L 29.113281 -23.339844 L 46.785156 1.171875 L 32.175781 1.171875 Z M 33.753906 -0.671875 L 32.789062 0 L 32.789062 -1.171875 L 44.492188 -1.171875 L 44.492188 0 L 43.539062 0.6875 L 26.714844 -22.652344 L 42.476562 -44.492188 L 43.429688 -43.804688 L 43.429688 -42.632812 L 32.476562 -42.632812 L 32.476562 -43.804688 L 33.441406 -43.132812 L 22.597656 -27.558594 L 11.558594 -43.125 L 12.515625 -43.804688 L 12.515625 -42.632812 L 1 -42.632812 L 1 -43.804688 L 1.957031 -44.488281 L 17.84375 -22.273438 L 1.136719 0.691406 L 0.1875 0 L 0.1875 -1.171875 L 11.828125 -1.171875 L 11.828125 0 L 10.859375 -0.660156 L 22.207031 -17.273438 Z M 33.753906 -0.671875 "/></g></g></g></g><g fill="#409fab" fill-opacity="1"><g transform="translate(45.023965, 61.703488)"><g><path d="M 48.386719 -43.339844 L 29.117188 1.171875 L 17.5625 1.171875 L -2.347656 -44.976562 L 11.164062 -44.976562 L 24.796875 -12.976562 L 23.71875 -12.515625 L 22.640625 -12.980469 L 36.460938 -44.976562 L 49.09375 -44.976562 Z M 46.230469 -44.269531 L 47.308594 -43.804688 L 47.308594 -42.632812 L 37.234375 -42.632812 L 37.234375 -43.804688 L 38.3125 -43.339844 L 23.710938 -9.539062 L 9.308594 -43.34375 L 10.386719 -43.804688 L 10.386719 -42.632812 L -0.5625 -42.632812 L -0.5625 -43.804688 L 0.515625 -44.269531 L 19.414062 -0.464844 L 18.335938 0 L 18.335938 -1.171875 L 28.347656 -1.171875 L 28.347656 0 L 27.269531 -0.464844 Z M 46.230469 -44.269531 "/></g></g></g><g fill="#409fab" fill-opacity="1"><g transform="translate(90.767851, 61.703488)"><g><path d="M 4.019531 -44.976562 L 16.503906 -44.976562 L 16.503906 1.171875 L 4.019531 1.171875 Z M 6.367188 -42.632812 L 6.367188 -1.171875 L 14.15625 -1.171875 L 14.15625 -42.632812 Z M 6.367188 -42.632812 "/></g></g></g></g></g></svg>
